<?xml version="1.0" encoding="UTF-8"?>
<svg id="Capa_2" data-name="Capa 2" xmlns="http://www.w3.org/2000/svg" viewBox="0 0 481.41 150.4">
  <defs>
    <style>
      .cls-1 {
        fill: #9f1a1f;
        stroke-width: 0px;
      }
    </style>
  </defs>
  <g id="Capa_1-2" data-name="Capa 1">
    <g>
      <path class="cls-1" d="M481.41,99.62v-.08s0,0,0,0c-.05-5.16-4.24-9.32-9.41-9.32-.14,0-27.26,0-27.27,0-2.93.24-5.3,1.85-6.86,4.16-.11.18-.22.36-.34.54-.09.16-.18.31-.2.34-.23.41-.54.83-.84,1.22-2.04,2.92-4.5,5.54-7.28,7.75-6.08,4.97-13.61,7.86-22.39,8.08-3.99.1-7.85-.5-11.49-1.66-14.89-4.58-25.76-18.32-26.05-34.65,0-.08,0-.15,0-.23,0-.15-.01-.29-.01-.43,0-.24.01-.48.02-.72,0-.23,0-.46,0-.69,0-.13.02-.26.02-.39,0-.11.01-.21.02-.32.2-3.69.95-7.25,2.18-10.59,0,0,0,0,0,0,.2-.54.41-1.08.63-1.6.03-.08.07-.15.1-.23.19-.45.4-.9.61-1.35.07-.14.14-.28.21-.42.19-.38.38-.75.57-1.12.1-.19.21-.37.31-.56.18-.32.36-.64.55-.96.13-.21.26-.42.38-.62.18-.29.37-.58.56-.87.14-.2,3.07-4,3.39-4.36.04-.04.08-.08.11-.12,6.97-7.66,17.06-12.42,28.07-12.03.12,0,.24.02.37.02,3.18.1,6.25.6,9.17,1.45.07.02.14.04.21.06.48.14.95.3,1.42.46,8.28,2.77,14.8,8.24,19.46,15.38,1.29,2.61,3.97,4.41,7.08,4.41h28.8c4.36,0,7.89-3.53,7.89-7.89V15.53C481.41,6.95,474.46,0,465.88,0h-119.33c-8.58,0-15.53,6.95-15.53,15.53v119.33c0,8.58,6.95,15.53,15.53,15.53h119.33c8.58,0,15.53-6.95,15.53-15.53v-35.23s0,0,0,0,0,0,0,0Z"/>
      <path class="cls-1" d="M265.13,0h-.08s0,0,0,0c-5.16.05-9.32,4.24-9.32,9.41,0,.14,0,27.26,0,27.27.24,2.93,1.85,5.3,4.16,6.86.18.11.36.22.54.34.16.09.31.18.34.2.41.23.83.54,1.22.84,2.92,2.04,5.54,4.5,7.75,7.28,4.97,6.08,7.86,13.61,8.08,22.39.1,3.99-.5,7.85-1.66,11.49-4.58,14.89-18.32,25.76-34.65,26.05-.08,0-.15,0-.23,0-.15,0-.29.01-.43.01-.24,0-.48-.01-.72-.02-.23,0-.46,0-.69,0-.13,0-.26-.02-.39-.02-.11,0-.21-.01-.32-.02-3.69-.2-7.25-.95-10.59-2.18,0,0,0,0,0,0-.54-.2-1.08-.41-1.6-.63-.08-.03-.15-.07-.23-.1-.45-.19-.9-.4-1.35-.61-.14-.07-.28-.14-.42-.21-.38-.19-.75-.38-1.12-.57-.19-.1-.37-.21-.56-.31-.32-.18-.64-.36-.96-.55-.21-.13-.42-.26-.62-.38-.29-.18-.58-.37-.87-.56-.2-.14-4-3.07-4.36-3.39-.04-.04-.08-.08-.12-.11-7.66-6.97-12.42-17.06-12.03-28.07,0-.12.02-.24.02-.37.1-3.18.6-6.25,1.45-9.17.02-.07.04-.14.06-.21.14-.48.3-.95.46-1.42,2.77-8.28,8.24-14.8,15.38-19.46,2.61-1.29,4.41-3.97,4.41-7.08V7.89C225.7,3.53,222.16,0,217.81,0h-36.77c-8.58,0-15.53,6.95-15.53,15.53v119.33c0,8.58,6.95,15.53,15.53,15.53h119.33c8.58,0,15.53-6.95,15.53-15.53V15.53C315.9,6.95,308.95,0,300.37,0h-35.23s0,0,0,0,0,0,0,0Z"/>
      <path class="cls-1" d="M150.4,99.62v-.08s0,0,0,0c-.05-5.16-4.24-9.32-9.41-9.32-.14,0-27.26,0-27.27,0-2.93.24-5.3,1.85-6.86,4.16-.11.18-.22.36-.34.54-.09.16-.18.31-.2.34-.23.41-.54.83-.84,1.22-2.04,2.92-4.5,5.54-7.28,7.75-6.08,4.97-13.61,7.86-22.39,8.08-3.99.1-7.85-.5-11.49-1.66-14.89-4.58-25.76-18.32-26.05-34.65,0-.08,0-.15,0-.23,0-.15-.01-.29-.01-.43,0-.24.01-.48.02-.72,0-.23,0-.46,0-.69,0-.13.02-.26.02-.39,0-.11.01-.21.02-.32.2-3.69.95-7.25,2.18-10.59,0,0,0,0,0,0,.2-.54.41-1.08.63-1.6.03-.08.07-.15.1-.23.19-.45.4-.9.61-1.35.07-.14.14-.28.21-.42.19-.38.38-.75.57-1.12.1-.19.21-.37.31-.56.18-.32.36-.64.55-.96.13-.21.26-.42.38-.62.18-.29.37-.58.56-.87.14-.2,3.07-4,3.39-4.36.04-.04.08-.08.11-.12,6.97-7.66,17.06-12.42,28.07-12.03.12,0,.24.02.37.02,3.18.1,6.25.6,9.17,1.45.07.02.14.04.21.06.48.14.95.3,1.42.46,8.28,2.77,14.8,8.24,19.46,15.38,1.29,2.61,3.97,4.41,7.08,4.41h28.8c4.36,0,7.89-3.53,7.89-7.89V15.53C150.4,6.95,143.44,0,134.87,0H15.53C6.95,0,0,6.95,0,15.53v119.33c0,8.58,6.95,15.53,15.53,15.53h119.33c8.58,0,15.53-6.95,15.53-15.53v-35.23s0,0,0,0,0,0,0,0Z"/>
    </g>
  </g>
</svg>